<svg xmlns="http://www.w3.org/2000/svg" width="16" height="10" viewBox="0 0 16 10"><path fill="#6644AF" d="M12.83 -2.7713e-07C12.32 -3.21716e-07 11.85 0.289999 11.63 0.739999L10.21 3.58C10.07 3.86 10 4.16 10 4.47L10 9C10 9.55 10.45 10 11 10L15 10C15.55 10 16 9.55 16 9L16 5C16 4.45 15.55 4 15 4L13 4L14.03 1.94C14.48 1.05 13.83 -1.89707e-07 12.83 -2.7713e-07ZM2.83 -1.15136e-06C2.32 -1.19594e-06 1.85 0.289999 1.63 0.739999L0.21 3.58C0.0699996 3.86 5.10549e-07 4.16 4.83448e-07 4.47L8.74228e-08 9C3.93402e-08 9.55 0.45 10 1 10L5 10C5.55 10 6 9.55 6 9L6 5C6 4.45 5.55 4 5 4L3 4L4.03 1.94C4.48 1.05 3.83 -1.06394e-06 2.83 -1.15136e-06Z"/></svg>